# xmcd CD database file
#
# Track frame offsets:
#	150
#	16187
#	29357
#	48182
#	61680
#	77685
#	94197
#	108745
#	127090
#	140532
#	154542
#	171800
#	191742
#	208332
#	226957
#	239755
#	256282
#	275425
#	291022
#
# Disc length: 4066 seconds
#
# Revision: 0
# Processed by: cddbd v1.5.1PL0 Copyright (c) Steve Scherf et al.
# Submitted via: CDex 1.51
#
DISCID=0f0fe013
DTITLE=Herb Ohta - Ohta-San Plays the Beatles
DYEAR=2002
DGENRE=Jazz
TTITLE0=Get Back
TTITLE1=Something
TTITLE2=And I Love Her
TTITLE3=I'll Follow the Sun
TTITLE4=Day Tripper
TTITLE5=Yesterday
TTITLE6=A Hard Day's Night
TTITLE7=Hey Jude
TTITLE8=Here Comes the Sum
TTITLE9=With a Little Help from My Friends
TTITLE10=My Sweet Lord
TTITLE11=All My Loving
TTITLE12=Long and Winding Road
TTITLE13=Eleanor Rigby
TTITLE14=Penny Lane
TTITLE15=I Want to Hold Your Hand
TTITLE16=Let it Be
TTITLE17=The Fool on the Hill
TTITLE18=Imagine
EXTD=YEAR: 2002
EXTT0=
EXTT1=
EXTT2=
EXTT3=
EXTT4=
EXTT5=
EXTT6=
EXTT7=
EXTT8=
EXTT9=
EXTT10=
EXTT11=
EXTT12=
EXTT13=
EXTT14=
EXTT15=
EXTT16=
EXTT17=
EXTT18=
PLAYORDER=
